# Blender 3.6.12
# www.blender.org
mtllib Trash.mtl
o Cylinder
v 0.000000 -0.005164 -1.390486
v 0.000000 -0.005164 -1.390486
v 0.000000 -0.005164 -1.390486
v 0.000000 3.381104 -1.316057
v 0.000000 3.381104 -1.316057
v 0.000000 3.381104 -1.316057
v 0.271270 -0.005164 -1.363768
v 0.271270 -0.005164 -1.363768
v 0.271270 -0.005164 -1.363768
v 0.256750 3.381104 -1.290769
v 0.256750 3.381104 -1.290769
v 0.256750 3.381104 -1.290769
v 0.532116 -0.005164 -1.284642
v 0.532116 -0.005164 -1.284642
v 0.532116 -0.005164 -1.284642
v 0.503633 3.381104 -1.215878
v 0.503633 3.381104 -1.215878
v 0.503633 3.381104 -1.215878
v 0.772513 -0.005164 -1.156147
v 0.772513 -0.005164 -1.156147
v 0.772513 -0.005164 -1.156147
v 0.731162 3.381104 -1.094261
v 0.731162 3.381104 -1.094261
v 0.731162 3.381104 -1.094261
v 0.983222 -0.005164 -0.983222
v 0.983222 -0.005164 -0.983222
v 0.983222 -0.005164 -0.983222
v 0.930593 3.381104 -0.930593
v 0.930593 3.381104 -0.930593
v 0.930593 3.381104 -0.930593
v 1.156147 -0.005164 -0.772513
v 1.156147 -0.005164 -0.772513
v 1.156147 -0.005164 -0.772513
v 1.094261 3.381104 -0.731162
v 1.094261 3.381104 -0.731162
v 1.094261 3.381104 -0.731162
v 1.284642 -0.005164 -0.532116
v 1.284642 -0.005164 -0.532116
v 1.284642 -0.005164 -0.532116
v 1.215878 3.381104 -0.503633
v 1.215878 3.381104 -0.503633
v 1.215878 3.381104 -0.503633
v 1.363768 -0.005164 -0.271270
v 1.363768 -0.005164 -0.271270
v 1.363768 -0.005164 -0.271270
v 1.290769 3.381104 -0.256750
v 1.290769 3.381104 -0.256750
v 1.290769 3.381104 -0.256750
v 1.390486 -0.005164 0.000000
v 1.390486 -0.005164 0.000000
v 1.390486 -0.005164 0.000000
v 1.316057 3.381104 0.000000
v 1.316057 3.381104 0.000000
v 1.316057 3.381104 0.000000
v 1.363768 -0.005164 0.271270
v 1.363768 -0.005164 0.271270
v 1.363768 -0.005164 0.271270
v 1.290769 3.381104 0.256750
v 1.290769 3.381104 0.256750
v 1.290769 3.381104 0.256750
v 1.284642 -0.005164 0.532116
v 1.284642 -0.005164 0.532116
v 1.284642 -0.005164 0.532116
v 1.215878 3.381104 0.503633
v 1.215878 3.381104 0.503633
v 1.215878 3.381104 0.503633
v 1.156147 -0.005164 0.772513
v 1.156147 -0.005164 0.772513
v 1.156147 -0.005164 0.772513
v 1.094261 3.381104 0.731162
v 1.094261 3.381104 0.731162
v 1.094261 3.381104 0.731162
v 0.983222 -0.005164 0.983222
v 0.983222 -0.005164 0.983222
v 0.983222 -0.005164 0.983222
v 0.930593 3.381104 0.930593
v 0.930593 3.381104 0.930593
v 0.930593 3.381104 0.930593
v 0.772513 -0.005164 1.156147
v 0.772513 -0.005164 1.156147
v 0.772513 -0.005164 1.156147
v 0.731162 3.381104 1.094261
v 0.731162 3.381104 1.094261
v 0.731162 3.381104 1.094261
v 0.532116 -0.005164 1.284642
v 0.532116 -0.005164 1.284642
v 0.532116 -0.005164 1.284642
v 0.503633 3.381104 1.215878
v 0.503633 3.381104 1.215878
v 0.503633 3.381104 1.215878
v 0.271270 -0.005164 1.363768
v 0.271270 -0.005164 1.363768
v 0.271270 -0.005164 1.363768
v 0.256750 3.381104 1.290769
v 0.256750 3.381104 1.290769
v 0.256750 3.381104 1.290769
v 0.000000 -0.005164 1.390486
v 0.000000 -0.005164 1.390486
v 0.000000 -0.005164 1.390486
v 0.000000 3.381104 1.316057
v 0.000000 3.381104 1.316057
v 0.000000 3.381104 1.316057
v -0.271270 -0.005164 1.363768
v -0.271270 -0.005164 1.363768
v -0.271270 -0.005164 1.363768
v -0.256750 3.381104 1.290769
v -0.256750 3.381104 1.290769
v -0.256750 3.381104 1.290769
v -0.532116 -0.005164 1.284642
v -0.532116 -0.005164 1.284642
v -0.532116 -0.005164 1.284642
v -0.503633 3.381104 1.215878
v -0.503633 3.381104 1.215878
v -0.503633 3.381104 1.215878
v -0.772513 -0.005164 1.156147
v -0.772513 -0.005164 1.156147
v -0.772513 -0.005164 1.156147
v -0.731162 3.381104 1.094261
v -0.731162 3.381104 1.094261
v -0.731162 3.381104 1.094261
v -0.983222 -0.005164 0.983222
v -0.983222 -0.005164 0.983222
v -0.983222 -0.005164 0.983222
v -0.930593 3.381104 0.930593
v -0.930593 3.381104 0.930593
v -0.930593 3.381104 0.930593
v -1.156147 -0.005164 0.772513
v -1.156147 -0.005164 0.772513
v -1.156147 -0.005164 0.772513
v -1.094261 3.381104 0.731162
v -1.094261 3.381104 0.731162
v -1.094261 3.381104 0.731162
v -1.284642 -0.005164 0.532116
v -1.284642 -0.005164 0.532116
v -1.284642 -0.005164 0.532116
v -1.215878 3.381104 0.503633
v -1.215878 3.381104 0.503633
v -1.215878 3.381104 0.503633
v -1.363768 -0.005164 0.271270
v -1.363768 -0.005164 0.271270
v -1.363768 -0.005164 0.271270
v -1.290769 3.381104 0.256750
v -1.290769 3.381104 0.256750
v -1.290769 3.381104 0.256750
v -1.390486 -0.005164 0.000000
v -1.390486 -0.005164 0.000000
v -1.390486 -0.005164 0.000000
v -1.316057 3.381104 0.000000
v -1.316057 3.381104 0.000000
v -1.316057 3.381104 0.000000
v -1.363768 -0.005164 -0.271270
v -1.363768 -0.005164 -0.271270
v -1.363768 -0.005164 -0.271270
v -1.290769 3.381104 -0.256750
v -1.290769 3.381104 -0.256750
v -1.290769 3.381104 -0.256750
v -1.284642 -0.005164 -0.532116
v -1.284642 -0.005164 -0.532116
v -1.284642 -0.005164 -0.532116
v -1.215878 3.381104 -0.503633
v -1.215878 3.381104 -0.503633
v -1.215878 3.381104 -0.503633
v -1.156147 -0.005164 -0.772513
v -1.156147 -0.005164 -0.772513
v -1.156147 -0.005164 -0.772513
v -1.094261 3.381104 -0.731162
v -1.094261 3.381104 -0.731162
v -1.094261 3.381104 -0.731162
v -0.983222 -0.005164 -0.983222
v -0.983222 -0.005164 -0.983222
v -0.983222 -0.005164 -0.983222
v -0.930593 3.381104 -0.930593
v -0.930593 3.381104 -0.930593
v -0.930593 3.381104 -0.930593
v -0.772513 -0.005164 -1.156147
v -0.772513 -0.005164 -1.156147
v -0.772513 -0.005164 -1.156147
v -0.731162 3.381104 -1.094261
v -0.731162 3.381104 -1.094261
v -0.731162 3.381104 -1.094261
v -0.532116 -0.005164 -1.284642
v -0.532116 -0.005164 -1.284642
v -0.532116 -0.005164 -1.284642
v -0.503633 3.381104 -1.215878
v -0.503633 3.381104 -1.215878
v -0.503633 3.381104 -1.215878
v -0.271270 -0.005164 -1.363768
v -0.271270 -0.005164 -1.363768
v -0.271270 -0.005164 -1.363768
v -0.256750 3.381104 -1.290769
v -0.256750 3.381104 -1.290769
v -0.256750 3.381104 -1.290769
v 0.271270 3.381104 -1.363768
v 0.271270 3.381104 -1.363768
v 0.271270 3.381104 -1.363768
v 0.000000 3.381104 -1.390486
v 0.000000 3.381104 -1.390486
v 0.000000 3.381104 -1.390486
v 0.532116 3.381104 -1.284642
v 0.532116 3.381104 -1.284642
v 0.532116 3.381104 -1.284642
v 0.772513 3.381104 -1.156147
v 0.772513 3.381104 -1.156147
v 0.772513 3.381104 -1.156147
v 0.983222 3.381104 -0.983222
v 0.983222 3.381104 -0.983222
v 0.983222 3.381104 -0.983222
v 1.156147 3.381104 -0.772513
v 1.156147 3.381104 -0.772513
v 1.156147 3.381104 -0.772513
v 1.284642 3.381104 -0.532116
v 1.284642 3.381104 -0.532116
v 1.284642 3.381104 -0.532116
v 1.363768 3.381104 -0.271270
v 1.363768 3.381104 -0.271270
v 1.363768 3.381104 -0.271270
v 1.390486 3.381104 0.000000
v 1.390486 3.381104 0.000000
v 1.390486 3.381104 0.000000
v 1.363768 3.381104 0.271270
v 1.363768 3.381104 0.271270
v 1.363768 3.381104 0.271270
v 1.284642 3.381104 0.532116
v 1.284642 3.381104 0.532116
v 1.284642 3.381104 0.532116
v 1.156147 3.381104 0.772513
v 1.156147 3.381104 0.772513
v 1.156147 3.381104 0.772513
v 0.983222 3.381104 0.983222
v 0.983222 3.381104 0.983222
v 0.983222 3.381104 0.983222
v 0.772513 3.381104 1.156147
v 0.772513 3.381104 1.156147
v 0.772513 3.381104 1.156147
v 0.532116 3.381104 1.284642
v 0.532116 3.381104 1.284642
v 0.532116 3.381104 1.284642
v 0.271270 3.381104 1.363768
v 0.271270 3.381104 1.363768
v 0.271270 3.381104 1.363768
v 0.000000 3.381104 1.390486
v 0.000000 3.381104 1.390486
v 0.000000 3.381104 1.390486
v -0.271270 3.381104 1.363768
v -0.271270 3.381104 1.363768
v -0.271270 3.381104 1.363768
v -0.532116 3.381104 1.284642
v -0.532116 3.381104 1.284642
v -0.532116 3.381104 1.284642
v -0.772513 3.381104 1.156147
v -0.772513 3.381104 1.156147
v -0.772513 3.381104 1.156147
v -0.983222 3.381104 0.983222
v -0.983222 3.381104 0.983222
v -0.983222 3.381104 0.983222
v -1.156147 3.381104 0.772513
v -1.156147 3.381104 0.772513
v -1.156147 3.381104 0.772513
v -1.284642 3.381104 0.532116
v -1.284642 3.381104 0.532116
v -1.284642 3.381104 0.532116
v -1.363768 3.381104 0.271270
v -1.363768 3.381104 0.271270
v -1.363768 3.381104 0.271270
v -1.390486 3.381104 0.000000
v -1.390486 3.381104 0.000000
v -1.390486 3.381104 0.000000
v -1.363768 3.381104 -0.271270
v -1.363768 3.381104 -0.271270
v -1.363768 3.381104 -0.271270
v -1.284642 3.381104 -0.532116
v -1.284642 3.381104 -0.532116
v -1.284642 3.381104 -0.532116
v -1.156147 3.381104 -0.772513
v -1.156147 3.381104 -0.772513
v -1.156147 3.381104 -0.772513
v -0.983222 3.381104 -0.983222
v -0.983222 3.381104 -0.983222
v -0.983222 3.381104 -0.983222
v -0.772513 3.381104 -1.156147
v -0.772513 3.381104 -1.156147
v -0.772513 3.381104 -1.156147
v -0.532116 3.381104 -1.284642
v -0.532116 3.381104 -1.284642
v -0.532116 3.381104 -1.284642
v -0.271270 3.381104 -1.363768
v -0.271270 3.381104 -1.363768
v -0.271270 3.381104 -1.363768
v 0.208787 3.503746 -1.049641
v 0.208787 3.503746 -1.049641
v 0.208787 3.503746 -1.049641
v 0.000000 3.503746 -1.070205
v 0.000000 3.503746 -1.070205
v 0.000000 3.503746 -1.070205
v 0.409550 3.503746 -0.988741
v 0.409550 3.503746 -0.988741
v 0.409550 3.503746 -0.988741
v 0.594574 3.503746 -0.889843
v 0.594574 3.503746 -0.889843
v 0.594574 3.503746 -0.889843
v 0.756749 3.503746 -0.756749
v 0.756749 3.503746 -0.756749
v 0.756749 3.503746 -0.756749
v 0.889843 3.503746 -0.594574
v 0.889843 3.503746 -0.594574
v 0.889843 3.503746 -0.594574
v 0.988741 3.503746 -0.409550
v 0.988741 3.503746 -0.409550
v 0.988741 3.503746 -0.409550
v 1.049641 3.503746 -0.208787
v 1.049641 3.503746 -0.208787
v 1.049641 3.503746 -0.208787
v 1.014602 3.503746 0.000000
v 1.014602 3.503746 0.000000
v 1.014602 3.503746 0.000000
v 1.049641 3.503746 0.208787
v 1.049641 3.503746 0.208787
v 1.049641 3.503746 0.208787
v 0.988741 3.503746 0.409550
v 0.988741 3.503746 0.409550
v 0.988741 3.503746 0.409550
v 0.889843 3.503746 0.594574
v 0.889843 3.503746 0.594574
v 0.889843 3.503746 0.594574
v 0.756749 3.503746 0.756749
v 0.756749 3.503746 0.756749
v 0.756749 3.503746 0.756749
v 0.594574 3.503746 0.889843
v 0.594574 3.503746 0.889843
v 0.594574 3.503746 0.889843
v 0.409550 3.503746 0.988741
v 0.409550 3.503746 0.988741
v 0.409550 3.503746 0.988741
v 0.208787 3.503746 1.049641
v 0.208787 3.503746 1.049641
v 0.208787 3.503746 1.049641
v 0.000000 3.503746 1.070205
v 0.000000 3.503746 1.070205
v 0.000000 3.503746 1.070205
v -0.208787 3.503746 1.049641
v -0.208787 3.503746 1.049641
v -0.208787 3.503746 1.049641
v -0.409550 3.503746 0.988741
v -0.409550 3.503746 0.988741
v -0.409550 3.503746 0.988741
v -0.594574 3.503746 0.889843
v -0.594574 3.503746 0.889843
v -0.594574 3.503746 0.889843
v -0.756749 3.503746 0.756749
v -0.756749 3.503746 0.756749
v -0.756749 3.503746 0.756749
v -0.889843 3.503746 0.594574
v -0.889843 3.503746 0.594574
v -0.889843 3.503746 0.594574
v -0.988741 3.503746 0.409550
v -0.988741 3.503746 0.409550
v -0.988741 3.503746 0.409550
v -1.049641 3.503746 0.208787
v -1.049641 3.503746 0.208787
v -1.049641 3.503746 0.208787
v -1.070205 3.503746 0.000000
v -1.070205 3.503746 0.000000
v -1.070205 3.503746 0.000000
v -1.049641 3.503746 -0.208787
v -1.049641 3.503746 -0.208787
v -1.049641 3.503746 -0.208787
v -0.988741 3.503746 -0.409550
v -0.988741 3.503746 -0.409550
v -0.988741 3.503746 -0.409550
v -0.889843 3.503746 -0.594574
v -0.889843 3.503746 -0.594574
v -0.889843 3.503746 -0.594574
v -0.756749 3.503746 -0.756749
v -0.756749 3.503746 -0.756749
v -0.756749 3.503746 -0.756749
v -0.594574 3.503746 -0.889843
v -0.594574 3.503746 -0.889843
v -0.594574 3.503746 -0.889843
v -0.409550 3.503746 -0.988741
v -0.409550 3.503746 -0.988741
v -0.409550 3.503746 -0.988741
v -0.208787 3.503746 -1.049641
v -0.208787 3.503746 -1.049641
v -0.208787 3.503746 -1.049641
v 0.256750 3.503746 -1.290769
v 0.256750 3.503746 -1.290769
v 0.256750 3.503746 -1.290769
v 0.000000 3.503746 -1.316057
v 0.000000 3.503746 -1.316057
v 0.000000 3.503746 -1.316057
v 0.503633 3.503746 -1.215878
v 0.503633 3.503746 -1.215878
v 0.503633 3.503746 -1.215878
v 0.731162 3.503746 -1.094261
v 0.731162 3.503746 -1.094261
v 0.731162 3.503746 -1.094261
v 0.930593 3.503746 -0.930593
v 0.930593 3.503746 -0.930593
v 0.930593 3.503746 -0.930593
v 1.094261 3.503746 -0.731162
v 1.094261 3.503746 -0.731162
v 1.094261 3.503746 -0.731162
v 1.215878 3.503746 -0.503633
v 1.215878 3.503746 -0.503633
v 1.215878 3.503746 -0.503633
v 1.290769 3.503746 -0.256750
v 1.290769 3.503746 -0.256750
v 1.290769 3.503746 -0.256750
v 1.316057 3.503746 0.000000
v 1.316057 3.503746 0.000000
v 1.316057 3.503746 0.000000
v 1.290769 3.503746 0.256750
v 1.290769 3.503746 0.256750
v 1.290769 3.503746 0.256750
v 1.215878 3.503746 0.503633
v 1.215878 3.503746 0.503633
v 1.215878 3.503746 0.503633
v 1.094261 3.503746 0.731162
v 1.094261 3.503746 0.731162
v 1.094261 3.503746 0.731162
v 0.930593 3.503746 0.930593
v 0.930593 3.503746 0.930593
v 0.930593 3.503746 0.930593
v 0.731162 3.503746 1.094261
v 0.731162 3.503746 1.094261
v 0.731162 3.503746 1.094261
v 0.503633 3.503746 1.215878
v 0.503633 3.503746 1.215878
v 0.503633 3.503746 1.215878
v 0.256750 3.503746 1.290769
v 0.256750 3.503746 1.290769
v 0.256750 3.503746 1.290769
v 0.000000 3.503746 1.316057
v 0.000000 3.503746 1.316057
v 0.000000 3.503746 1.316057
v -0.256750 3.503746 1.290769
v -0.256750 3.503746 1.290769
v -0.256750 3.503746 1.290769
v -0.503633 3.503746 1.215878
v -0.503633 3.503746 1.215878
v -0.503633 3.503746 1.215878
v -0.731162 3.503746 1.094261
v -0.731162 3.503746 1.094261
v -0.731162 3.503746 1.094261
v -0.930593 3.503746 0.930593
v -0.930593 3.503746 0.930593
v -0.930593 3.503746 0.930593
v -1.094261 3.503746 0.731162
v -1.094261 3.503746 0.731162
v -1.094261 3.503746 0.731162
v -1.215878 3.503746 0.503633
v -1.215878 3.503746 0.503633
v -1.215878 3.503746 0.503633
v -1.290769 3.503746 0.256750
v -1.290769 3.503746 0.256750
v -1.290769 3.503746 0.256750
v -1.316057 3.503746 0.000000
v -1.316057 3.503746 0.000000
v -1.316057 3.503746 0.000000
v -1.290769 3.503746 -0.256750
v -1.290769 3.503746 -0.256750
v -1.290769 3.503746 -0.256750
v -1.215878 3.503746 -0.503633
v -1.215878 3.503746 -0.503633
v -1.215878 3.503746 -0.503633
v -1.094261 3.503746 -0.731162
v -1.094261 3.503746 -0.731162
v -1.094261 3.503746 -0.731162
v -0.930593 3.503746 -0.930593
v -0.930593 3.503746 -0.930593
v -0.930593 3.503746 -0.930593
v -0.731162 3.503746 -1.094261
v -0.731162 3.503746 -1.094261
v -0.731162 3.503746 -1.094261
v -0.503633 3.503746 -1.215878
v -0.503633 3.503746 -1.215878
v -0.503633 3.503746 -1.215878
v -0.256750 3.503746 -1.290769
v -0.256750 3.503746 -1.290769
v -0.256750 3.503746 -1.290769
v 0.051652 4.708480 -0.259673
v 0.051652 4.708480 -0.259673
v 0.051652 4.708480 -0.259673
v -0.000000 4.708480 -0.264760
v -0.000000 4.708480 -0.264760
v -0.000000 4.708480 -0.264760
v 0.101319 4.708480 -0.244606
v 0.101319 4.708480 -0.244606
v 0.101319 4.708480 -0.244606
v 0.147093 4.708480 -0.220140
v 0.147093 4.708480 -0.220140
v 0.147093 4.708480 -0.220140
v 0.187214 4.708480 -0.187214
v 0.187214 4.708480 -0.187214
v 0.187214 4.708480 -0.187214
v 0.220140 4.708480 -0.147093
v 0.220140 4.708480 -0.147093
v 0.220140 4.708480 -0.147093
v 0.244606 4.708480 -0.101319
v 0.244606 4.708480 -0.101319
v 0.244606 4.708480 -0.101319
v 0.259673 4.708480 -0.051652
v 0.259673 4.708480 -0.051652
v 0.259673 4.708480 -0.051652
v 0.264760 4.708480 0.000000
v 0.264760 4.708480 0.000000
v 0.264760 4.708480 0.000000
v 0.259673 4.708480 0.051652
v 0.259673 4.708480 0.051652
v 0.259673 4.708480 0.051652
v 0.244606 4.708480 0.101319
v 0.244606 4.708480 0.101319
v 0.244606 4.708480 0.101319
v 0.220140 4.708480 0.147093
v 0.220140 4.708480 0.147093
v 0.220140 4.708480 0.147093
v 0.187214 4.708480 0.187214
v 0.187214 4.708480 0.187214
v 0.187214 4.708480 0.187214
v 0.147093 4.708480 0.220140
v 0.147093 4.708480 0.220140
v 0.147093 4.708480 0.220140
v 0.101319 4.708480 0.244606
v 0.101319 4.708480 0.244606
v 0.101319 4.708480 0.244606
v 0.051652 4.708480 0.259673
v 0.051652 4.708480 0.259673
v 0.051652 4.708480 0.259673
v -0.000000 4.708480 0.264760
v -0.000000 4.708480 0.264760
v -0.000000 4.708480 0.264760
v -0.051652 4.708480 0.259673
v -0.051652 4.708480 0.259673
v -0.051652 4.708480 0.259673
v -0.101319 4.708480 0.244606
v -0.101319 4.708480 0.244606
v -0.101319 4.708480 0.244606
v -0.147093 4.708480 0.220140
v -0.147093 4.708480 0.220140
v -0.147093 4.708480 0.220140
v -0.187214 4.708480 0.187214
v -0.187214 4.708480 0.187214
v -0.187214 4.708480 0.187214
v -0.220140 4.708480 0.147093
v -0.220140 4.708480 0.147093
v -0.220140 4.708480 0.147093
v -0.244606 4.708480 0.101319
v -0.244606 4.708480 0.101319
v -0.244606 4.708480 0.101319
v -0.259673 4.708480 0.051652
v -0.259673 4.708480 0.051652
v -0.259673 4.708480 0.051652
v -0.264760 4.708480 0.000000
v -0.264760 4.708480 0.000000
v -0.264760 4.708480 0.000000
v -0.259673 4.708480 -0.051652
v -0.259673 4.708480 -0.051652
v -0.259673 4.708480 -0.051652
v -0.244606 4.708480 -0.101319
v -0.244606 4.708480 -0.101319
v -0.244606 4.708480 -0.101319
v -0.220140 4.708480 -0.147093
v -0.220140 4.708480 -0.147093
v -0.220140 4.708480 -0.147093
v -0.187214 4.708480 -0.187214
v -0.187214 4.708480 -0.187214
v -0.187214 4.708480 -0.187214
v -0.147093 4.708480 -0.220140
v -0.147093 4.708480 -0.220140
v -0.147093 4.708480 -0.220140
v -0.101319 4.708480 -0.244606
v -0.101319 4.708480 -0.244606
v -0.101319 4.708480 -0.244606
v -0.051652 4.708480 -0.259673
v -0.051652 4.708480 -0.259673
v -0.051652 4.708480 -0.259673
v 0.988741 4.002580 -0.409550
v 0.988741 4.002580 -0.409550
v 0.988741 4.002580 -0.409550
v 0.988741 4.002580 -0.409550
v 0.922529 4.591046 -0.330461
v 0.922529 4.591046 -0.330461
v 0.922529 4.591046 -0.330461
v 0.922529 4.591046 -0.330461
v 0.493108 4.604948 -0.204252
v 0.493108 4.604948 -0.204252
v 0.493108 4.604948 -0.204252
v 0.493108 4.604948 -0.204252
v 0.523481 4.604948 -0.104127
v 0.523481 4.604948 -0.104127
v 0.523481 4.604948 -0.104127
v 0.523481 4.604948 -0.104127
v 0.921082 4.591046 -0.168468
v 0.921082 4.591046 -0.168468
v 0.921082 4.591046 -0.168468
v 0.921082 4.591046 -0.168468
v 0.994038 4.002580 -0.208787
v 0.994038 4.002580 -0.208787
v 0.994038 4.002580 -0.208787
v 0.994038 4.002580 -0.208787
v -0.756749 4.002580 0.756749
v -0.756749 4.002580 0.756749
v -0.756749 4.002580 0.756749
v -0.756749 4.002580 0.756749
v -0.610613 4.303763 0.610613
v -0.610613 4.303763 0.610613
v -0.610613 4.303763 0.610613
v -0.610613 4.303763 0.610613
v -0.377409 4.604948 0.377409
v -0.377409 4.604948 0.377409
v -0.377409 4.604948 0.377409
v -0.377409 4.604948 0.377409
v -0.443786 4.604948 0.296528
v -0.443786 4.604948 0.296528
v -0.443786 4.604948 0.296528
v -0.443786 4.604948 0.296528
v -0.718005 4.303763 0.479755
v -0.718005 4.303763 0.479755
v -0.718005 4.303763 0.479755
v -0.718005 4.303763 0.479755
v -0.889843 4.002580 0.594574
v -0.889843 4.002580 0.594574
v -0.889843 4.002580 0.594574
v -0.889843 4.002580 0.594574
v 0.533736 4.604948 -0.000000
v 0.533736 4.604948 -0.000000
v 0.533736 4.604948 -0.000000
v 0.533736 4.604948 -0.000000
v 0.937674 4.591046 0.000000
v 0.937674 4.591046 0.000000
v 0.937674 4.591046 0.000000
v 0.937674 4.591046 0.000000
v 1.014602 4.002580 0.000000
v 1.014602 4.002580 0.000000
v 1.014602 4.002580 0.000000
v 1.014602 4.002580 0.000000
v -0.493108 4.604948 0.204252
v -0.493108 4.604948 0.204252
v -0.493108 4.604948 0.204252
v -0.493108 4.604948 0.204252
v -0.797804 4.303763 0.330461
v -0.797804 4.303763 0.330461
v -0.797804 4.303763 0.330461
v -0.797804 4.303763 0.330461
v -0.988741 4.002580 0.409550
v -0.988741 4.002580 0.409550
v -0.988741 4.002580 0.409550
v -0.988741 4.002580 0.409550
v 0.523481 4.604948 0.104127
v 0.523481 4.604948 0.104127
v 0.523481 4.604948 0.104127
v 0.523481 4.604948 0.104127
v 0.921082 4.591046 0.168468
v 0.921082 4.591046 0.168468
v 0.921082 4.591046 0.168468
v 0.921082 4.591046 0.168468
v 0.994038 4.002580 0.208787
v 0.994038 4.002580 0.208787
v 0.994038 4.002580 0.208787
v 0.994038 4.002580 0.208787
v -0.523481 4.604948 0.104127
v -0.523481 4.604948 0.104127
v -0.523481 4.604948 0.104127
v -0.523481 4.604948 0.104127
v -0.846944 4.303763 0.168468
v -0.846944 4.303763 0.168468
v -0.846944 4.303763 0.168468
v -0.846944 4.303763 0.168468
v -1.003306 4.002580 0.208787
v -1.003306 4.002580 0.208787
v -1.003306 4.002580 0.208787
v -1.003306 4.002580 0.208787
v 0.493108 4.604948 0.204252
v 0.493108 4.604948 0.204252
v 0.493108 4.604948 0.204252
v 0.493108 4.604948 0.204252
v 0.922529 4.591046 0.330461
v 0.922529 4.591046 0.330461
v 0.922529 4.591046 0.330461
v 0.922529 4.591046 0.330461
v 0.988741 4.002580 0.409550
v 0.988741 4.002580 0.409550
v 0.988741 4.002580 0.409550
v 0.988741 4.002580 0.409550
v -0.533736 4.604948 -0.000000
v -0.533736 4.604948 -0.000000
v -0.533736 4.604948 -0.000000
v -0.533736 4.604948 -0.000000
v -0.863537 4.303763 -0.000000
v -0.863537 4.303763 -0.000000
v -0.863537 4.303763 -0.000000
v -0.863537 4.303763 -0.000000
v -1.023869 4.002580 0.000000
v -1.023869 4.002580 0.000000
v -1.023869 4.002580 0.000000
v -1.023869 4.002580 0.000000
v 0.443786 4.604948 0.296528
v 0.443786 4.604948 0.296528
v 0.443786 4.604948 0.296528
v 0.443786 4.604948 0.296528
v 0.860551 4.507641 0.479755
v 0.860551 4.507641 0.479755
v 0.860551 4.507641 0.479755
v 0.860551 4.507641 0.479755
v 0.889843 4.002580 0.594574
v 0.889843 4.002580 0.594574
v 0.889843 4.002580 0.594574
v 0.889843 4.002580 0.594574
v -0.523481 4.604948 -0.104127
v -0.523481 4.604948 -0.104127
v -0.523481 4.604948 -0.104127
v -0.523481 4.604948 -0.104127
v -0.846944 4.303763 -0.168468
v -0.846944 4.303763 -0.168468
v -0.846944 4.303763 -0.168468
v -0.846944 4.303763 -0.168468
v -1.003306 4.002580 -0.208787
v -1.003306 4.002580 -0.208787
v -1.003306 4.002580 -0.208787
v -1.003306 4.002580 -0.208787
v 0.377409 4.604948 0.377409
v 0.377409 4.604948 0.377409
v 0.377409 4.604948 0.377409
v 0.377409 4.604948 0.377409
v 0.610613 4.303763 0.610613
v 0.610613 4.303763 0.610613
v 0.610613 4.303763 0.610613
v 0.610613 4.303763 0.610613
v 0.756749 4.002580 0.756749
v 0.756749 4.002580 0.756749
v 0.756749 4.002580 0.756749
v 0.756749 4.002580 0.756749
v -0.493108 4.604948 -0.204252
v -0.493108 4.604948 -0.204252
v -0.493108 4.604948 -0.204252
v -0.493108 4.604948 -0.204252
v -0.797804 4.303763 -0.330461
v -0.797804 4.303763 -0.330461
v -0.797804 4.303763 -0.330461
v -0.797804 4.303763 -0.330461
v -0.988741 4.002580 -0.409550
v -0.988741 4.002580 -0.409550
v -0.988741 4.002580 -0.409550
v -0.988741 4.002580 -0.409550
v 0.296528 4.604948 0.443786
v 0.296528 4.604948 0.443786
v 0.296528 4.604948 0.443786
v 0.296528 4.604948 0.443786
v 0.479755 4.303763 0.718005
v 0.479755 4.303763 0.718005
v 0.479755 4.303763 0.718005
v 0.479755 4.303763 0.718005
v 0.594574 4.002580 0.889843
v 0.594574 4.002580 0.889843
v 0.594574 4.002580 0.889843
v 0.594574 4.002580 0.889843
v -0.443786 4.604948 -0.296528
v -0.443786 4.604948 -0.296528
v -0.443786 4.604948 -0.296528
v -0.443786 4.604948 -0.296528
v -0.718005 4.303763 -0.479755
v -0.718005 4.303763 -0.479755
v -0.718005 4.303763 -0.479755
v -0.718005 4.303763 -0.479755
v -0.889843 4.002580 -0.594574
v -0.889843 4.002580 -0.594574
v -0.889843 4.002580 -0.594574
v -0.889843 4.002580 -0.594574
v 0.204252 4.604948 0.493108
v 0.204252 4.604948 0.493108
v 0.204252 4.604948 0.493108
v 0.204252 4.604948 0.493108
v 0.330461 4.303763 0.797804
v 0.330461 4.303763 0.797804
v 0.330461 4.303763 0.797804
v 0.330461 4.303763 0.797804
v 0.409550 4.002580 0.988741
v 0.409550 4.002580 0.988741
v 0.409550 4.002580 0.988741
v 0.409550 4.002580 0.988741
v -0.000000 4.002580 -1.070205
v -0.000000 4.002580 -1.070205
v -0.000000 4.002580 -1.070205
v -0.000000 4.002580 -1.070205
v -0.000000 4.303763 -0.863537
v -0.000000 4.303763 -0.863537
v -0.000000 4.303763 -0.863537
v -0.000000 4.303763 -0.863537
v -0.000000 4.604948 -0.533736
v -0.000000 4.604948 -0.533736
v -0.000000 4.604948 -0.533736
v -0.000000 4.604948 -0.533736
v 0.104127 4.604948 -0.523481
v 0.104127 4.604948 -0.523481
v 0.104127 4.604948 -0.523481
v 0.104127 4.604948 -0.523481
v 0.168468 4.303763 -0.846944
v 0.168468 4.303763 -0.846944
v 0.168468 4.303763 -0.846944
v 0.168468 4.303763 -0.846944
v 0.208787 4.002580 -1.049641
v 0.208787 4.002580 -1.049641
v 0.208787 4.002580 -1.049641
v 0.208787 4.002580 -1.049641
v -0.377409 4.604948 -0.377409
v -0.377409 4.604948 -0.377409
v -0.377409 4.604948 -0.377409
v -0.377409 4.604948 -0.377409
v -0.610613 4.303763 -0.610613
v -0.610613 4.303763 -0.610613
v -0.610613 4.303763 -0.610613
v -0.610613 4.303763 -0.610613
v -0.756749 4.002580 -0.756749
v -0.756749 4.002580 -0.756749
v -0.756749 4.002580 -0.756749
v -0.756749 4.002580 -0.756749
v 0.104127 4.604948 0.523481
v 0.104127 4.604948 0.523481
v 0.104127 4.604948 0.523481
v 0.104127 4.604948 0.523481
v 0.168468 4.303763 0.846944
v 0.168468 4.303763 0.846944
v 0.168468 4.303763 0.846944
v 0.168468 4.303763 0.846944
v 0.208787 4.002580 1.049641
v 0.208787 4.002580 1.049641
v 0.208787 4.002580 1.049641
v 0.208787 4.002580 1.049641
v 0.204252 4.604948 -0.493108
v 0.204252 4.604948 -0.493108
v 0.204252 4.604948 -0.493108
v 0.204252 4.604948 -0.493108
v 0.330461 4.303763 -0.797804
v 0.330461 4.303763 -0.797804
v 0.330461 4.303763 -0.797804
v 0.330461 4.303763 -0.797804
v 0.409550 4.002580 -0.988741
v 0.409550 4.002580 -0.988741
v 0.409550 4.002580 -0.988741
v 0.409550 4.002580 -0.988741
v -0.296528 4.604948 -0.443786
v -0.296528 4.604948 -0.443786
v -0.296528 4.604948 -0.443786
v -0.296528 4.604948 -0.443786
v -0.479755 4.303763 -0.718005
v -0.479755 4.303763 -0.718005
v -0.479755 4.303763 -0.718005
v -0.479755 4.303763 -0.718005
v -0.594574 4.002580 -0.889843
v -0.594574 4.002580 -0.889843
v -0.594574 4.002580 -0.889843
v -0.594574 4.002580 -0.889843
v -0.000000 4.604948 0.533736
v -0.000000 4.604948 0.533736
v -0.000000 4.604948 0.533736
v -0.000000 4.604948 0.533736
v -0.000000 4.303763 0.863537
v -0.000000 4.303763 0.863537
v -0.000000 4.303763 0.863537
v -0.000000 4.303763 0.863537
v -0.000000 4.002580 1.070205
v -0.000000 4.002580 1.070205
v -0.000000 4.002580 1.070205
v -0.000000 4.002580 1.070205
v 0.296528 4.604948 -0.443786
v 0.296528 4.604948 -0.443786
v 0.296528 4.604948 -0.443786
v 0.296528 4.604948 -0.443786
v 0.479755 4.303763 -0.718005
v 0.479755 4.303763 -0.718005
v 0.479755 4.303763 -0.718005
v 0.479755 4.303763 -0.718005
v 0.594574 4.002580 -0.889843
v 0.594574 4.002580 -0.889843
v 0.594574 4.002580 -0.889843
v 0.594574 4.002580 -0.889843
v -0.204252 4.604948 -0.493108
v -0.204252 4.604948 -0.493108
v -0.204252 4.604948 -0.493108
v -0.204252 4.604948 -0.493108
v -0.330461 4.303763 -0.797804
v -0.330461 4.303763 -0.797804
v -0.330461 4.303763 -0.797804
v -0.330461 4.303763 -0.797804
v -0.409550 4.002580 -0.988741
v -0.409550 4.002580 -0.988741
v -0.409550 4.002580 -0.988741
v -0.409550 4.002580 -0.988741
v -0.104127 4.604948 0.523481
v -0.104127 4.604948 0.523481
v -0.104127 4.604948 0.523481
v -0.104127 4.604948 0.523481
v -0.168468 4.303763 0.846944
v -0.168468 4.303763 0.846944
v -0.168468 4.303763 0.846944
v -0.168468 4.303763 0.846944
v -0.208787 4.002580 1.049641
v -0.208787 4.002580 1.049641
v -0.208787 4.002580 1.049641
v -0.208787 4.002580 1.049641
v 0.377409 4.604948 -0.377409
v 0.377409 4.604948 -0.377409
v 0.377409 4.604948 -0.377409
v 0.377409 4.604948 -0.377409
v 0.610613 4.303763 -0.610613
v 0.610613 4.303763 -0.610613
v 0.610613 4.303763 -0.610613
v 0.610613 4.303763 -0.610613
v 0.756749 4.002580 -0.756749
v 0.756749 4.002580 -0.756749
v 0.756749 4.002580 -0.756749
v 0.756749 4.002580 -0.756749
v -0.104127 4.604948 -0.523481
v -0.104127 4.604948 -0.523481
v -0.104127 4.604948 -0.523481
v -0.104127 4.604948 -0.523481
v -0.168468 4.303763 -0.846944
v -0.168468 4.303763 -0.846944
v -0.168468 4.303763 -0.846944
v -0.168468 4.303763 -0.846944
v -0.208787 4.002580 -1.049641
v -0.208787 4.002580 -1.049641
v -0.208787 4.002580 -1.049641
v -0.208787 4.002580 -1.049641
v -0.204252 4.604948 0.493108
v -0.204252 4.604948 0.493108
v -0.204252 4.604948 0.493108
v -0.204252 4.604948 0.493108
v -0.330461 4.303763 0.797804
v -0.330461 4.303763 0.797804
v -0.330461 4.303763 0.797804
v -0.330461 4.303763 0.797804
v -0.409550 4.002580 0.988741
v -0.409550 4.002580 0.988741
v -0.409550 4.002580 0.988741
v -0.409550 4.002580 0.988741
v 0.443786 4.604948 -0.296528
v 0.443786 4.604948 -0.296528
v 0.443786 4.604948 -0.296528
v 0.443786 4.604948 -0.296528
v 0.860551 4.507641 -0.479755
v 0.860551 4.507641 -0.479755
v 0.860551 4.507641 -0.479755
v 0.860551 4.507641 -0.479755
v 0.889843 4.002580 -0.594574
v 0.889843 4.002580 -0.594574
v 0.889843 4.002580 -0.594574
v 0.889843 4.002580 -0.594574
v -0.296528 4.604948 0.443786
v -0.296528 4.604948 0.443786
v -0.296528 4.604948 0.443786
v -0.296528 4.604948 0.443786
v -0.479755 4.303763 0.718005
v -0.479755 4.303763 0.718005
v -0.479755 4.303763 0.718005
v -0.479755 4.303763 0.718005
v -0.594574 4.002580 0.889843
v -0.594574 4.002580 0.889843
v -0.594574 4.002580 0.889843
v -0.594574 4.002580 0.889843
v 0.994038 3.753162 -0.208787
v 0.994038 3.753162 -0.208787
v 0.994038 3.753162 -0.208787
v 0.994038 3.753162 -0.208787
v -0.889843 3.753162 0.594574
v -0.889843 3.753162 0.594574
v 1.014602 3.753162 0.000000
v 1.014602 3.753162 0.000000
v 1.014602 3.753162 0.000000
v 1.014602 3.753162 0.000000
v -0.988741 3.753162 0.409550
v -0.988741 3.753162 0.409550
v -0.988741 3.753162 0.409550
v 0.994038 3.753162 0.208787
v 0.994038 3.753162 0.208787
v 0.994038 3.753162 0.208787
v 0.994038 3.753162 0.208787
v -1.049641 3.753162 0.208787
v -1.049641 3.753162 0.208787
v -1.049641 3.753162 0.208787
v -1.049641 3.753162 0.208787
v 0.988741 3.753162 0.409550
v 0.988741 3.753162 0.409550
v 0.988741 3.753162 0.409550
v -1.070205 3.753162 0.000000
v -1.070205 3.753162 0.000000
v -1.070205 3.753162 0.000000
v -1.070205 3.753162 0.000000
v 0.889843 3.753162 0.594574
v 0.889843 3.753162 0.594574
v -1.049641 3.753162 -0.208787
v -1.049641 3.753162 -0.208787
v -1.049641 3.753162 -0.208787
v -1.049641 3.753162 -0.208787
v 0.756749 3.753162 0.756749
v 0.756749 3.753162 0.756749
v -0.988741 3.753162 -0.409550
v -0.988741 3.753162 -0.409550
v -0.988741 3.753162 -0.409550
v 0.594574 3.753162 0.889843
v 0.594574 3.753162 0.889843
v -0.889843 3.753162 -0.594574
v -0.889843 3.753162 -0.594574
v 0.409550 3.753162 0.988741
v 0.409550 3.753162 0.988741
v 0.208787 3.753162 -1.049641
v 0.208787 3.753162 -1.049641
v -0.756749 3.753162 -0.756749
v -0.756749 3.753162 -0.756749
v 0.208787 3.753162 1.049641
v 0.208787 3.753162 1.049641
v 0.409550 3.753162 -0.988741
v 0.409550 3.753162 -0.988741
v -0.594574 3.753162 -0.889843
v -0.594574 3.753162 -0.889843
v -0.000000 3.753162 1.070205
v -0.000000 3.753162 1.070205
v 0.594574 3.753162 -0.889843
v 0.594574 3.753162 -0.889843
v -0.409550 3.753162 -0.988741
v -0.409550 3.753162 -0.988741
v -0.208787 3.753162 1.049641
v -0.208787 3.753162 1.049641
v 0.756749 3.753162 -0.756749
v 0.756749 3.753162 -0.756749
v -0.208787 3.753162 -1.049641
v -0.208787 3.753162 -1.049641
v -0.409550 3.753162 0.988741
v -0.409550 3.753162 0.988741
v 0.889843 3.753162 -0.594574
v 0.889843 3.753162 -0.594574
v -0.594574 3.753162 0.889843
v -0.594574 3.753162 0.889843
v 0.988741 3.753162 -0.409550
v 0.988741 3.753162 -0.409550
v 0.988741 3.753162 -0.409550
v -0.756749 3.753162 0.756749
v -0.756749 3.753162 0.756749
v -0.000000 3.753162 -1.070205
v -0.000000 3.753162 -1.070205
vn 0.0980 -0.0000 -0.9952
vn 0.2903 -0.0000 -0.9569
vn 0.4714 -0.0000 -0.8819
vn 0.6344 -0.0000 -0.7730
vn 0.7730 -0.0000 -0.6344
vn 0.8819 -0.0000 -0.4714
vn 0.9569 -0.0000 -0.2903
vn 0.9952 -0.0000 -0.0980
vn 0.9952 -0.0000 0.0980
vn 0.9569 -0.0000 0.2903
vn 0.8819 -0.0000 0.4714
vn 0.7730 -0.0000 0.6344
vn 0.6344 -0.0000 0.7730
vn 0.4714 -0.0000 0.8819
vn 0.2903 -0.0000 0.9569
vn 0.0980 -0.0000 0.9952
vn -0.0980 -0.0000 0.9952
vn -0.2903 -0.0000 0.9569
vn -0.4714 -0.0000 0.8819
vn -0.6344 -0.0000 0.7730
vn -0.7730 -0.0000 0.6344
vn -0.8819 -0.0000 0.4714
vn -0.9569 -0.0000 0.2903
vn -0.9952 -0.0000 0.0980
vn -0.9952 -0.0000 -0.0980
vn -0.9569 -0.0000 -0.2903
vn -0.8819 -0.0000 -0.4714
vn -0.7730 -0.0000 -0.6344
vn -0.6344 -0.0000 -0.7730
vn -0.4714 -0.0000 -0.8819
vn -0.2903 -0.0000 -0.9569
vn -0.0980 -0.0000 -0.9952
vn -0.0000 -1.0000 -0.0000
vn -0.0000 1.0000 -0.0000
vn 0.3452 0.9327 -0.1047
vn 0.0001 1.0000 -0.0000
vn -0.0001 1.0000 -0.0000
vn -0.2789 0.9327 0.2288
vn 0.3590 0.9327 -0.0354
vn -0.3181 0.9327 0.1700
vn 0.3590 0.9327 0.0354
vn -0.3452 0.9327 0.1047
vn 0.3452 0.9327 0.1047
vn -0.3590 0.9327 0.0354
vn 0.3181 0.9327 0.1700
vn -0.3590 0.9327 -0.0354
vn 0.2789 0.9327 0.2288
vn 0.2788 0.9327 0.2288
vn -0.3452 0.9327 -0.1047
vn 0.2289 0.9327 0.2789
vn 0.2288 0.9327 0.2789
vn -0.3181 0.9327 -0.1700
vn 0.1701 0.9327 0.3181
vn 0.1700 0.9327 0.3181
vn 0.0354 0.9327 -0.3590
vn -0.2789 0.9327 -0.2288
vn -0.2788 0.9327 -0.2288
vn 0.1047 0.9327 0.3452
vn 0.1047 0.9327 -0.3452
vn -0.2289 0.9327 -0.2789
vn -0.2288 0.9327 -0.2789
vn 0.0354 0.9327 0.3590
vn 0.1701 0.9327 -0.3181
vn 0.1700 0.9327 -0.3181
vn -0.1701 0.9327 -0.3181
vn -0.1700 0.9327 -0.3181
vn -0.0354 0.9327 0.3590
vn 0.2288 0.9327 -0.2789
vn -0.1047 0.9327 -0.3452
vn -0.1047 0.9327 0.3452
vn 0.2789 0.9327 -0.2288
vn -0.0354 0.9327 -0.3590
vn -0.1701 0.9327 0.3181
vn -0.1700 0.9327 0.3181
vn 0.3181 0.9327 -0.1700
vn -0.2288 0.9327 0.2789
vn -0.5239 0.5639 0.6384
vn -0.4289 0.7368 0.5226
vn 0.8738 0.1579 -0.4599
vn 0.8739 0.1579 -0.4598
vn 0.8738 0.1579 -0.4598
vn 0.0042 0.9446 -0.3281
vn -0.3893 0.5639 0.7283
vn -0.3187 0.7368 0.5963
vn -0.0809 0.5639 -0.8218
vn -0.0663 0.7368 -0.6729
vn 0.4374 0.3617 -0.8233
vn -0.0015 0.7214 -0.6925
vn -0.0014 0.7214 -0.6925
vn -0.2397 0.5639 0.7903
vn -0.1963 0.7368 0.6470
vn -0.2397 0.5639 -0.7903
vn -0.1963 0.7368 -0.6470
vn 0.5239 0.5639 -0.6384
vn 0.4289 0.7368 -0.5226
vn -0.0809 0.5639 0.8218
vn -0.0663 0.7368 0.6729
vn -0.3893 0.5639 -0.7283
vn -0.3187 0.7368 -0.5963
vn 0.3893 0.5639 -0.7283
vn 0.3187 0.7368 -0.5963
vn 0.0809 0.5639 0.8218
vn 0.0663 0.7368 0.6729
vn -0.5239 0.5639 -0.6384
vn -0.4289 0.7368 -0.5226
vn 0.2397 0.5639 -0.7903
vn 0.1963 0.7368 -0.6470
vn 0.2397 0.5639 0.7903
vn 0.1963 0.7368 0.6470
vn -0.6384 0.5639 -0.5239
vn -0.5226 0.7368 -0.4289
vn 0.0809 0.5639 -0.8218
vn 0.0663 0.7368 -0.6729
vn 0.3893 0.5639 0.7283
vn 0.3187 0.7368 0.5963
vn -0.7283 0.5639 -0.3893
vn -0.5963 0.7368 -0.3187
vn 0.5239 0.5639 0.6384
vn 0.4289 0.7368 0.5226
vn -0.9787 0.0909 -0.1839
vn -0.9787 0.0909 -0.1840
vn -0.8438 0.5158 -0.1482
vn -0.6470 0.7368 -0.1963
vn 0.4374 0.3617 0.8233
vn -0.0015 0.7214 0.6925
vn -0.9786 0.1818 -0.0964
vn -0.8794 0.4681 -0.0866
vn -0.6729 0.7368 -0.0663
vn 0.8738 0.1579 0.4599
vn 0.8739 0.1579 0.4598
vn 0.0042 0.9446 0.3281
vn -0.9786 0.1818 0.0964
vn -0.8794 0.4681 0.0866
vn -0.6729 0.7368 0.0663
vn 0.9997 -0.0000 0.0264
vn 0.9929 0.1185 0.0105
vn 0.9929 0.1185 0.0106
vn 0.0327 0.9995 0.0037
vn 0.0328 0.9995 0.0036
vn -0.9787 0.0909 0.1840
vn -0.8438 0.5159 0.1482
vn -0.8438 0.5158 0.1482
vn -0.6470 0.7368 0.1963
vn 0.9869 0.1290 0.0972
vn 0.0344 0.9994 0.0034
vn -0.7283 0.5639 0.3893
vn -0.5963 0.7368 0.3187
vn 0.9869 0.1290 -0.0972
vn 0.0344 0.9994 -0.0034
vn -0.6384 0.5639 0.5239
vn -0.5226 0.7368 0.4289
vn 0.9997 -0.0000 -0.0264
vn 0.9929 0.1185 -0.0105
vn 0.9929 0.1185 -0.0106
vn 0.0328 0.9995 -0.0037
vn 0.0327 0.9995 -0.0036
vn 0.9808 0.1093 -0.1617
vn 0.9933 0.1107 0.0344
vn 0.9933 0.1106 0.0343
vn 0.9933 0.1107 -0.0344
vn 0.9808 0.1093 0.1617
vt 0.862330 0.670630
vt 0.862330 0.348104
vt 0.893335 0.348104
vt 0.893335 0.670630
vt 0.922542 0.348104
vt 0.922542 0.670630
vt 0.948827 0.348104
vt 0.948827 0.670630
vt 0.971181 0.348104
vt 0.971181 0.670630
vt 0.009044 0.671355
vt 0.009044 0.349313
vt 0.035309 0.350276
vt 0.035309 0.672318
vt 0.064501 0.350940
vt 0.064501 0.672982
vt 0.095499 0.351280
vt 0.095499 0.673322
vt 0.127112 0.351282
vt 0.127112 0.673324
vt 0.158125 0.350946
vt 0.158125 0.672988
vt 0.187346 0.350286
vt 0.187346 0.672328
vt 0.213652 0.349326
vt 0.213652 0.671369
vt 0.236032 0.348104
vt 0.236032 0.670147
vt 0.254120 0.670630
vt 0.254120 0.348104
vt 0.276474 0.348104
vt 0.276474 0.670630
vt 0.302759 0.348104
vt 0.302759 0.670630
vt 0.331965 0.348104
vt 0.331965 0.670630
vt 0.362971 0.348104
vt 0.362971 0.670630
vt 0.394584 0.348104
vt 0.394584 0.670630
vt 0.425590 0.348104
vt 0.425590 0.670630
vt 0.454796 0.348104
vt 0.454796 0.670630
vt 0.481082 0.348104
vt 0.481082 0.670630
vt 0.503435 0.348104
vt 0.503435 0.670630
vt 0.521523 0.670053
vt 0.521523 0.348104
vt 0.547808 0.349155
vt 0.547808 0.671103
vt 0.577014 0.349878
vt 0.577014 0.671827
vt 0.608019 0.350247
vt 0.608019 0.672196
vt 0.639632 0.350247
vt 0.639632 0.672196
vt 0.670638 0.349879
vt 0.670638 0.671827
vt 0.699845 0.349155
vt 0.699845 0.671104
vt 0.726131 0.348105
vt 0.726131 0.670053
vt 0.744219 0.670630
vt 0.744219 0.348104
vt 0.770504 0.348104
vt 0.770504 0.670630
vt 0.799711 0.348104
vt 0.799711 0.670630
vt 0.788110 0.762397
vt 0.788110 0.791743
vt 0.776429 0.791743
vt 0.776429 0.762397
vt 0.830717 0.348104
vt 0.830717 0.670630
vt 0.330017 0.153724
vt 0.330017 0.185337
vt 0.323849 0.216342
vt 0.311751 0.245549
vt 0.294188 0.271834
vt 0.271834 0.294188
vt 0.245549 0.311751
vt 0.216342 0.323849
vt 0.185337 0.330017
vt 0.153724 0.330017
vt 0.122718 0.323849
vt 0.093511 0.311751
vt 0.067226 0.294188
vt 0.044872 0.271834
vt 0.027309 0.245549
vt 0.015211 0.216342
vt 0.009044 0.185337
vt 0.009044 0.153724
vt 0.015211 0.122718
vt 0.027309 0.093511
vt 0.044872 0.067226
vt 0.067226 0.044872
vt 0.093511 0.027309
vt 0.122718 0.015211
vt 0.153724 0.009044
vt 0.185337 0.009044
vt 0.216342 0.015211
vt 0.245549 0.027309
vt 0.271834 0.044872
vt 0.294188 0.067226
vt 0.311751 0.093512
vt 0.323849 0.122718
vt 0.493630 0.321426
vt 0.523551 0.321426
vt 0.524397 0.330016
vt 0.492784 0.330016
vt 0.552897 0.315589
vt 0.555403 0.323849
vt 0.580540 0.304139
vt 0.584609 0.311751
vt 0.605418 0.287515
vt 0.610895 0.294188
vt 0.626576 0.266358
vt 0.633248 0.271834
vt 0.643199 0.241480
vt 0.650812 0.245549
vt 0.654649 0.213837
vt 0.662909 0.216342
vt 0.660486 0.184491
vt 0.669077 0.185337
vt 0.660486 0.154570
vt 0.669077 0.153724
vt 0.654649 0.125224
vt 0.662909 0.122718
vt 0.643199 0.097581
vt 0.650812 0.093511
vt 0.626576 0.072702
vt 0.633248 0.067226
vt 0.605419 0.051545
vt 0.610895 0.044872
vt 0.580540 0.034922
vt 0.584609 0.027309
vt 0.552897 0.023472
vt 0.555403 0.015211
vt 0.523551 0.017634
vt 0.524397 0.009044
vt 0.493630 0.017634
vt 0.492784 0.009044
vt 0.464284 0.023472
vt 0.461778 0.015211
vt 0.436641 0.034922
vt 0.432572 0.027309
vt 0.411763 0.051545
vt 0.406287 0.044872
vt 0.390605 0.072702
vt 0.383933 0.067226
vt 0.373982 0.097581
vt 0.366370 0.093511
vt 0.362532 0.125224
vt 0.354272 0.122718
vt 0.356695 0.154570
vt 0.348104 0.153724
vt 0.356695 0.184491
vt 0.348104 0.185337
vt 0.362532 0.213837
vt 0.354272 0.216342
vt 0.373982 0.241480
vt 0.366370 0.245549
vt 0.390605 0.266358
vt 0.383933 0.271834
vt 0.411763 0.287515
vt 0.406287 0.294188
vt 0.436641 0.304139
vt 0.432572 0.311751
vt 0.464284 0.315589
vt 0.461778 0.323849
vt 0.414225 0.815933
vt 0.410175 0.827372
vt 0.381920 0.814127
vt 0.383929 0.808452
vt 0.808225 0.882374
vt 0.807231 0.857495
vt 0.818891 0.857495
vt 0.819885 0.882374
vt 0.492535 0.851010
vt 0.492535 0.878653
vt 0.480854 0.878653
vt 0.480854 0.851010
vt 0.788110 0.734753
vt 0.776429 0.734753
vt 0.788110 0.878653
vt 0.788110 0.903531
vt 0.776429 0.903531
vt 0.776429 0.878653
vt 0.492535 0.821664
vt 0.480854 0.821664
vt 0.788110 0.709875
vt 0.776429 0.709875
vt 0.788110 0.851009
vt 0.776429 0.851009
vt 0.492535 0.791743
vt 0.480854 0.791743
vt 0.788110 0.688718
vt 0.776429 0.688718
vt 0.788110 0.821664
vt 0.776429 0.821664
vt 0.492535 0.762397
vt 0.480854 0.762397
vt 0.756926 0.878767
vt 0.755883 0.903621
vt 0.744219 0.903559
vt 0.745263 0.878705
vt 0.492535 0.734753
vt 0.480854 0.734753
vt 0.757702 0.851141
vt 0.746038 0.851079
vt 0.492535 0.709875
vt 0.480854 0.709875
vt 0.758179 0.821804
vt 0.746516 0.821742
vt 0.492535 0.688718
vt 0.480854 0.688718
vt 0.758341 0.791884
vt 0.746677 0.791822
vt 0.807231 0.713596
vt 0.808226 0.688718
vt 0.819886 0.688718
vt 0.818892 0.713596
vt 0.758179 0.762530
vt 0.746516 0.762468
vt 0.806547 0.741238
vt 0.818207 0.741238
vt 0.757702 0.734870
vt 0.746038 0.734808
vt 0.806197 0.770584
vt 0.817858 0.770584
vt 0.756926 0.709968
vt 0.745263 0.709906
vt 0.806197 0.800505
vt 0.817858 0.800505
vt 0.755883 0.688780
vt 0.744219 0.688718
vt 0.806546 0.829851
vt 0.818207 0.829851
vt 0.492535 0.903531
vt 0.492535 0.924688
vt 0.480854 0.924688
vt 0.480854 0.903531
vt 0.826895 0.284460
vt 0.851226 0.284460
vt 0.854021 0.312836
vt 0.824100 0.312836
vt 0.875090 0.279713
vt 0.883367 0.306998
vt 0.897569 0.270402
vt 0.911010 0.295548
vt 0.917800 0.256884
vt 0.935888 0.278925
vt 0.935005 0.239679
vt 0.957045 0.257768
vt 0.948523 0.219449
vt 0.973669 0.232890
vt 0.957834 0.196969
vt 0.985119 0.205246
vt 0.956163 0.172473
vt 0.990956 0.175900
vt 0.962581 0.148774
vt 0.990956 0.145979
vt 0.957834 0.124910
vt 0.985119 0.116633
vt 0.948523 0.102431
vt 0.973669 0.088990
vt 0.935005 0.082200
vt 0.957046 0.064112
vt 0.917800 0.064995
vt 0.935888 0.042955
vt 0.897569 0.051477
vt 0.911010 0.026331
vt 0.875090 0.042166
vt 0.883367 0.014881
vt 0.851226 0.037419
vt 0.854021 0.009044
vt 0.826895 0.037419
vt 0.824100 0.009044
vt 0.803031 0.042166
vt 0.794754 0.014881
vt 0.780552 0.051477
vt 0.767111 0.026331
vt 0.760321 0.064995
vt 0.742233 0.042955
vt 0.743116 0.082200
vt 0.721075 0.064112
vt 0.729598 0.102431
vt 0.704452 0.088990
vt 0.720287 0.124910
vt 0.693002 0.116633
vt 0.715540 0.148774
vt 0.687165 0.145979
vt 0.715540 0.173105
vt 0.687165 0.175900
vt 0.720287 0.196969
vt 0.693002 0.205246
vt 0.729598 0.219449
vt 0.704452 0.232889
vt 0.743116 0.239679
vt 0.721075 0.257768
vt 0.760321 0.256884
vt 0.742232 0.278925
vt 0.780552 0.270402
vt 0.767111 0.295548
vt 0.803031 0.279713
vt 0.794754 0.306998
vt 0.364559 0.829966
vt 0.358725 0.831448
vt 0.352714 0.831763
vt 0.346757 0.830899
vt 0.341082 0.828890
vt 0.335909 0.825813
vt 0.331436 0.821785
vt 0.327834 0.816962
vt 0.325243 0.811529
vt 0.323761 0.805695
vt 0.323446 0.799684
vt 0.324310 0.793727
vt 0.326319 0.788052
vt 0.329396 0.782879
vt 0.333424 0.778406
vt 0.338247 0.774804
vt 0.343680 0.772213
vt 0.349514 0.770731
vt 0.355525 0.770416
vt 0.361482 0.771280
vt 0.367157 0.773289
vt 0.372330 0.776366
vt 0.376803 0.780394
vt 0.380405 0.785217
vt 0.382996 0.790650
vt 0.384478 0.796484
vt 0.384793 0.802495
vt 0.378843 0.819300
vt 0.374815 0.823773
vt 0.369992 0.827375
vt 0.304291 0.764380
vt 0.312411 0.755362
vt 0.415967 0.803924
vt 0.298087 0.774808
vt 0.415331 0.791806
vt 0.294036 0.786247
vt 0.412344 0.780045
vt 0.292295 0.798256
vt 0.407120 0.769092
vt 0.292931 0.810374
vt 0.399859 0.759370
vt 0.295918 0.822135
vt 0.390841 0.751250
vt 0.301142 0.833088
vt 0.380413 0.745046
vt 0.363415 0.862290
vt 0.351297 0.862926
vt 0.308403 0.842811
vt 0.368974 0.740995
vt 0.375176 0.859303
vt 0.317421 0.850930
vt 0.356965 0.739254
vt 0.386129 0.854079
vt 0.327849 0.857134
vt 0.344847 0.739890
vt 0.395851 0.846818
vt 0.339288 0.861185
vt 0.333086 0.742877
vt 0.403971 0.837801
vt 0.322133 0.748101
vt 0.573965 0.707488
vt 0.573965 0.727719
vt 0.550210 0.727719
vt 0.550210 0.707488
vt 0.521523 0.739018
vt 0.521523 0.722694
vt 0.286664 0.727107
vt 0.302395 0.715360
vt 0.695924 0.822441
vt 0.695293 0.844906
vt 0.671574 0.844779
vt 0.672204 0.822314
vt 0.623355 0.831598
vt 0.615818 0.813628
vt 0.459257 0.844274
vt 0.451293 0.861242
vt 0.573965 0.750198
vt 0.550210 0.750198
vt 0.521523 0.757156
vt 0.320115 0.706908
vt 0.061486 0.775191
vt 0.061486 0.799522
vt 0.037730 0.799522
vt 0.037730 0.775191
vt 0.009044 0.797173
vt 0.009044 0.777540
vt 0.349579 0.901136
vt 0.330149 0.898319
vt 0.694445 0.865116
vt 0.670725 0.864990
vt 0.229350 0.806164
vt 0.215896 0.804854
vt 0.200236 0.774506
vt 0.229350 0.757832
vt 0.421664 0.875076
vt 0.573965 0.774062
vt 0.550210 0.774062
vt 0.521523 0.776412
vt 0.339143 0.702075
vt 0.061486 0.823386
vt 0.037730 0.823386
vt 0.009044 0.816428
vt 0.311643 0.891766
vt 0.061486 0.691412
vt 0.061486 0.708617
vt 0.037730 0.708617
vt 0.037730 0.691412
vt 0.437852 0.892784
vt 0.418356 0.907342
vt 0.405933 0.886823
vt 0.573965 0.798394
vt 0.550210 0.798394
vt 0.521523 0.796044
vt 0.358749 0.701047
vt 0.061486 0.845865
vt 0.037730 0.845865
vt 0.009044 0.834566
vt 0.294770 0.881728
vt 0.061486 0.728847
vt 0.037730 0.728847
vt 0.396395 0.917817
vt 0.388213 0.895275
vt 0.573965 0.822258
vt 0.550210 0.822258
vt 0.521523 0.815300
vt 0.378179 0.703864
vt 0.061486 0.866096
vt 0.037730 0.866096
vt 0.009044 0.850890
vt 0.280180 0.868591
vt 0.061486 0.751327
vt 0.037730 0.751327
vt 0.009044 0.758284
vt 0.009044 0.740146
vt 0.369185 0.900108
vt 0.573965 0.844737
vt 0.550210 0.844737
vt 0.521523 0.833438
vt 0.396686 0.710417
vt 0.128692 0.848891
vt 0.127883 0.828660
vt 0.151597 0.828660
vt 0.152405 0.848891
vt 0.181496 0.817362
vt 0.182148 0.833686
vt 0.268433 0.852861
vt 0.573965 0.864968
vt 0.550210 0.864968
vt 0.406895 0.688718
vt 0.427806 0.701158
vt 0.413558 0.720455
vt 0.127327 0.806180
vt 0.151040 0.806180
vt 0.181046 0.799223
vt 0.259980 0.835141
vt 0.573965 0.882172
vt 0.550210 0.882172
vt 0.445888 0.717439
vt 0.428148 0.733592
vt 0.127043 0.782316
vt 0.151076 0.782843
vt 0.180817 0.779967
vt 0.255148 0.816112
vt 0.694445 0.690410
vt 0.695293 0.707640
vt 0.671573 0.707513
vt 0.670725 0.690284
vt 0.213690 0.738433
vt 0.200236 0.739744
vt 0.200236 0.691412
vt 0.229350 0.708086
vt 0.456387 0.750078
vt 0.127043 0.757984
vt 0.151076 0.758511
vt 0.180818 0.760335
vt 0.254120 0.796506
vt 0.695924 0.727890
vt 0.672204 0.727764
vt 0.615818 0.737336
vt 0.623355 0.720839
vt 0.462766 0.767703
vt 0.127327 0.734121
vt 0.151360 0.734648
vt 0.181047 0.741079
vt 0.256937 0.777077
vt 0.695958 0.751005
vt 0.672238 0.750879
vt 0.615809 0.756052
vt 0.461738 0.786463
vt 0.127884 0.711642
vt 0.151597 0.711642
vt 0.181496 0.722942
vt 0.263490 0.758570
vt 0.696089 0.774876
vt 0.672369 0.774749
vt 0.615915 0.775313
vt 0.462766 0.806069
vt 0.128692 0.691412
vt 0.152405 0.691412
vt 0.182148 0.706618
vt 0.273528 0.741697
vt 0.695958 0.799207
vt 0.672238 0.799080
vt 0.615809 0.794945
vt 0.459949 0.825499
vt 0.573965 0.690283
vt 0.550210 0.690283
vt 0.254262 0.727484
vt 0.270543 0.709402
vt 0.720032 0.798710
vt 0.719644 0.822567
vt 0.597721 0.690283
vt 0.597721 0.707488
vt 0.719809 0.775002
vt 0.104170 0.711642
vt 0.104979 0.691412
vt 0.720032 0.750509
vt 0.103614 0.734121
vt 0.719644 0.728016
vt 0.103330 0.757984
vt 0.719013 0.707766
vt 0.103330 0.782316
vt 0.718164 0.690536
vt 0.103613 0.806180
vt 0.597721 0.864968
vt 0.597721 0.882172
vt 0.104170 0.828660
vt 0.597721 0.844737
vt 0.085242 0.751327
vt 0.085242 0.775191
vt 0.104978 0.848891
vt 0.597721 0.822258
vt 0.085242 0.728847
vt 0.085242 0.845865
vt 0.085242 0.866096
vt 0.597721 0.798394
vt 0.085242 0.708617
vt 0.085242 0.823386
vt 0.597721 0.774062
vt 0.085242 0.691412
vt 0.085242 0.799522
vt 0.597721 0.750198
vt 0.719013 0.845032
vt 0.718164 0.865243
vt 0.597721 0.727719
s 0
usemtl Tash
f 3/1/1 198/2/1 194/3/1
f 3/1/1 194/3/1 8/4/1
f 9/4/2 195/3/2 200/5/2
f 9/4/2 200/5/2 14/6/2
f 15/6/3 201/5/3 203/7/3
f 15/6/3 203/7/3 20/8/3
f 21/8/4 204/7/4 206/9/4
f 21/8/4 206/9/4 26/10/4
f 27/11/5 207/12/5 209/13/5
f 27/11/5 209/13/5 32/14/5
f 33/14/6 210/13/6 212/15/6
f 33/14/6 212/15/6 38/16/6
f 39/16/7 213/15/7 215/17/7
f 39/16/7 215/17/7 44/18/7
f 45/18/8 216/17/8 218/19/8
f 45/18/8 218/19/8 50/20/8
f 51/20/9 219/19/9 222/21/9
f 51/20/9 222/21/9 57/22/9
f 56/22/10 221/21/10 225/23/10
f 56/22/10 225/23/10 63/24/10
f 62/24/11 224/23/11 228/25/11
f 62/24/11 228/25/11 69/26/11
f 68/26/12 227/25/12 231/27/12
f 68/26/12 231/27/12 75/28/12
f 74/29/13 230/30/13 234/31/13
f 74/29/13 234/31/13 81/32/13
f 80/32/14 233/31/14 237/33/14
f 80/32/14 237/33/14 87/34/14
f 86/34/15 236/33/15 240/35/15
f 86/34/15 240/35/15 93/36/15
f 92/36/16 239/35/16 243/37/16
f 92/36/16 243/37/16 99/38/16
f 97/38/17 241/37/17 245/39/17
f 97/38/17 245/39/17 104/40/17
f 103/40/18 244/39/18 248/41/18
f 103/40/18 248/41/18 110/42/18
f 109/42/19 247/41/19 251/43/19
f 109/42/19 251/43/19 116/44/19
f 115/44/20 250/43/20 254/45/20
f 115/44/20 254/45/20 122/46/20
f 121/46/21 253/45/21 257/47/21
f 121/46/21 257/47/21 128/48/21
f 127/49/22 256/50/22 260/51/22
f 127/49/22 260/51/22 134/52/22
f 133/52/23 259/51/23 263/53/23
f 133/52/23 263/53/23 140/54/23
f 139/54/24 262/53/24 266/55/24
f 139/54/24 266/55/24 146/56/24
f 145/56/25 265/55/25 268/57/25
f 145/56/25 268/57/25 151/58/25
f 152/58/26 269/57/26 271/59/26
f 152/58/26 271/59/26 157/60/26
f 158/60/27 272/59/27 274/61/27
f 158/60/27 274/61/27 163/62/27
f 164/62/28 275/61/28 277/63/28
f 164/62/28 277/63/28 169/64/28
f 170/65/29 278/66/29 280/67/29
f 170/65/29 280/67/29 175/68/29
f 176/68/30 281/67/30 283/69/30
f 176/68/30 283/69/30 181/70/30
f 11/71/1 6/72/1 390/73/1
f 11/71/1 390/73/1 386/74/1
f 182/70/31 284/69/31 286/75/31
f 182/70/31 286/75/31 187/76/31
f 188/76/32 287/75/32 196/2/32
f 188/76/32 196/2/32 1/1/32
f 189/77/33 2/78/33 7/79/33
f 7/79/33 13/80/33 19/81/33
f 19/81/33 25/82/33 31/83/33
f 31/83/33 37/84/33 43/85/33
f 43/85/33 49/86/33 55/87/33
f 55/87/33 61/88/33 67/89/33
f 67/89/33 73/90/33 79/91/33
f 79/91/33 85/92/33 91/93/33
f 91/93/33 98/94/33 105/95/33
f 105/95/33 111/96/33 117/97/33
f 117/97/33 123/98/33 129/99/33
f 129/99/33 135/100/33 141/101/33
f 141/101/33 147/102/33 153/103/33
f 153/103/33 159/104/33 165/105/33
f 165/105/33 171/106/33 177/107/33
f 177/107/33 183/108/33 189/77/33
f 189/77/33 7/79/33 19/81/33
f 19/81/33 31/83/33 43/85/33
f 43/85/33 55/87/33 67/89/33
f 67/89/33 79/91/33 91/93/33
f 91/93/33 105/95/33 117/97/33
f 117/97/33 129/99/33 141/101/33
f 141/101/33 153/103/33 165/105/33
f 165/105/33 177/107/33 189/77/33
f 189/77/33 19/81/33 43/85/33
f 43/85/33 67/89/33 91/93/33
f 91/93/33 117/97/33 141/101/33
f 141/101/33 165/105/33 189/77/33
f 189/77/33 43/85/33 91/93/33
f 91/93/33 141/101/33 189/77/33
f 5/109/34 10/110/34 193/111/34
f 5/109/34 193/111/34 197/112/34
f 10/110/34 16/113/34 199/114/34
f 10/110/34 199/114/34 193/111/34
f 16/113/34 22/115/34 202/116/34
f 16/113/34 202/116/34 199/114/34
f 22/115/34 28/117/34 205/118/34
f 22/115/34 205/118/34 202/116/34
f 28/117/34 34/119/34 208/120/34
f 28/117/34 208/120/34 205/118/34
f 34/119/34 40/121/34 211/122/34
f 34/119/34 211/122/34 208/120/34
f 40/121/34 46/123/34 214/124/34
f 40/121/34 214/124/34 211/122/34
f 46/123/34 52/125/34 217/126/34
f 46/123/34 217/126/34 214/124/34
f 52/125/34 58/127/34 220/128/34
f 52/125/34 220/128/34 217/126/34
f 58/127/34 64/129/34 223/130/34
f 58/127/34 223/130/34 220/128/34
f 64/129/34 70/131/34 226/132/34
f 64/129/34 226/132/34 223/130/34
f 70/131/34 76/133/34 229/134/34
f 70/131/34 229/134/34 226/132/34
f 76/133/34 82/135/34 232/136/34
f 76/133/34 232/136/34 229/134/34
f 82/135/34 88/137/34 235/138/34
f 82/135/34 235/138/34 232/136/34
f 88/137/34 94/139/34 238/140/34
f 88/137/34 238/140/34 235/138/34
f 94/139/34 101/141/34 242/142/34
f 94/139/34 242/142/34 238/140/34
f 101/141/34 108/143/34 246/144/34
f 101/141/34 246/144/34 242/142/34
f 108/143/34 114/145/34 249/146/34
f 108/143/34 249/146/34 246/144/34
f 114/145/34 120/147/34 252/148/34
f 114/145/34 252/148/34 249/146/34
f 120/147/34 126/149/34 255/150/34
f 120/147/34 255/150/34 252/148/34
f 126/149/34 132/151/34 258/152/34
f 126/149/34 258/152/34 255/150/34
f 132/151/34 138/153/34 261/154/34
f 132/151/34 261/154/34 258/152/34
f 138/153/34 144/155/34 264/156/34
f 138/153/34 264/156/34 261/154/34
f 144/155/34 150/157/34 267/158/34
f 144/155/34 267/158/34 264/156/34
f 150/157/34 156/159/34 270/160/34
f 150/157/34 270/160/34 267/158/34
f 156/159/34 162/161/34 273/162/34
f 156/159/34 273/162/34 270/160/34
f 162/161/34 168/163/34 276/164/34
f 162/161/34 276/164/34 273/162/34
f 168/163/34 174/165/34 279/166/34
f 168/163/34 279/166/34 276/164/34
f 174/165/34 180/167/34 282/168/34
f 174/165/34 282/168/34 279/166/34
f 180/167/34 186/169/34 285/170/34
f 180/167/34 285/170/34 282/168/34
f 186/169/34 192/171/34 288/172/34
f 186/169/34 288/172/34 285/170/34
f 192/171/34 5/109/34 197/112/34
f 192/171/34 197/112/34 288/172/34
f 591/173/35 588/174/35 501/175/35
f 591/173/35 501/175/35 503/176/35
f 172/177/28 167/178/28 467/179/28
f 172/177/28 467/179/28 469/180/28
f 96/181/15 89/182/15 428/183/15
f 96/181/15 428/183/15 432/184/15
f 17/185/2 12/71/2 387/74/2
f 17/185/2 387/74/2 392/186/2
f 178/187/29 173/188/29 470/189/29
f 178/187/29 470/189/29 472/190/29
f 102/191/16 95/181/16 431/184/16
f 102/191/16 431/184/16 435/192/16
f 23/193/3 18/185/3 393/186/3
f 23/193/3 393/186/3 395/194/3
f 184/195/30 179/187/30 473/190/30
f 184/195/30 473/190/30 475/196/30
f 107/197/17 100/191/17 433/192/17
f 107/197/17 433/192/17 437/198/17
f 29/199/4 24/193/4 396/194/4
f 29/199/4 396/194/4 398/200/4
f 190/201/31 185/195/31 476/196/31
f 190/201/31 476/196/31 478/202/31
f 113/203/18 106/197/18 436/198/18
f 113/203/18 436/198/18 440/204/18
f 35/205/5 30/206/5 399/207/5
f 35/205/5 399/207/5 401/208/5
f 4/72/32 191/201/32 479/202/32
f 4/72/32 479/202/32 388/73/32
f 119/209/19 112/203/19 439/204/19
f 119/209/19 439/204/19 443/210/19
f 41/211/6 36/205/6 402/208/6
f 41/211/6 402/208/6 404/212/6
f 125/213/20 118/209/20 442/210/20
f 125/213/20 442/210/20 446/214/20
f 47/215/7 42/211/7 405/212/7
f 47/215/7 405/212/7 407/216/7
f 131/217/21 124/213/21 445/214/21
f 131/217/21 445/214/21 449/218/21
f 53/219/8 48/215/8 408/216/8
f 53/219/8 408/216/8 410/220/8
f 137/221/22 130/222/22 448/223/22
f 137/221/22 448/223/22 452/224/22
f 60/225/9 54/219/9 411/220/9
f 60/225/9 411/220/9 414/226/9
f 143/227/23 136/221/23 451/224/23
f 143/227/23 451/224/23 455/228/23
f 66/229/10 59/225/10 413/226/10
f 66/229/10 413/226/10 417/230/10
f 149/231/24 142/227/24 454/228/24
f 149/231/24 454/228/24 458/232/24
f 72/233/11 65/229/11 416/230/11
f 72/233/11 416/230/11 420/234/11
f 154/235/25 148/231/25 457/232/25
f 154/235/25 457/232/25 460/236/25
f 78/237/12 71/233/12 419/234/12
f 78/237/12 419/234/12 423/238/12
f 160/239/26 155/235/26 461/236/26
f 160/239/26 461/236/26 463/240/26
f 84/241/13 77/242/13 422/243/13
f 84/241/13 422/243/13 426/244/13
f 166/178/27 161/239/27 464/240/27
f 166/178/27 464/240/27 466/179/27
f 90/182/14 83/241/14 425/244/14
f 90/182/14 425/244/14 429/183/14
f 293/245/34 289/246/34 385/247/34
f 293/245/34 385/247/34 389/248/34
f 289/246/34 295/249/34 391/250/34
f 289/246/34 391/250/34 385/247/34
f 295/249/34 298/251/34 394/252/34
f 295/249/34 394/252/34 391/250/34
f 298/251/34 301/253/34 397/254/34
f 298/251/34 397/254/34 394/252/34
f 301/253/34 304/255/34 400/256/34
f 301/253/34 400/256/34 397/254/34
f 304/255/34 307/257/34 403/258/34
f 304/255/34 403/258/34 400/256/34
f 307/257/34 310/259/34 406/260/34
f 307/257/34 406/260/34 403/258/34
f 310/259/34 313/261/34 409/262/34
f 310/259/34 409/262/34 406/260/34
f 313/261/34 316/263/34 412/264/34
f 313/261/34 412/264/34 409/262/34
f 316/263/34 319/265/34 415/266/34
f 316/263/34 415/266/34 412/264/34
f 319/265/34 322/267/34 418/268/34
f 319/265/34 418/268/34 415/266/34
f 322/267/34 325/269/34 421/270/34
f 322/267/34 421/270/34 418/268/34
f 325/269/34 328/271/34 424/272/34
f 325/269/34 424/272/34 421/270/34
f 328/271/34 331/273/34 427/274/34
f 328/271/34 427/274/34 424/272/34
f 331/273/34 334/275/34 430/276/34
f 331/273/34 430/276/34 427/274/34
f 334/275/34 338/277/34 434/278/34
f 334/275/34 434/278/34 430/276/34
f 338/277/34 342/279/34 438/280/34
f 338/277/34 438/280/34 434/278/34
f 342/279/34 345/281/34 441/282/34
f 342/279/34 441/282/34 438/280/34
f 345/281/34 348/283/34 444/284/34
f 345/281/34 444/284/34 441/282/34
f 348/283/34 351/285/34 447/286/34
f 348/283/34 447/286/34 444/284/34
f 351/285/34 354/287/34 450/288/34
f 351/285/34 450/288/34 447/286/34
f 354/287/34 357/289/34 453/290/34
f 354/287/34 453/290/34 450/288/34
f 357/289/34 360/291/34 456/292/34
f 357/289/34 456/292/34 453/290/34
f 360/291/34 363/293/34 459/294/34
f 360/291/34 459/294/34 456/292/34
f 363/293/34 366/295/34 462/296/34
f 363/293/34 462/296/34 459/294/34
f 366/295/34 369/297/34 465/298/34
f 366/295/34 465/298/34 462/296/34
f 369/297/34 372/299/34 468/300/34
f 369/297/34 468/300/34 465/298/34
f 372/299/34 375/301/34 471/302/34
f 372/299/34 471/302/34 468/300/34
f 375/301/34 378/303/34 474/304/34
f 375/301/34 474/304/34 471/302/34
f 378/303/34 381/305/34 477/306/34
f 378/303/34 477/306/34 474/304/34
f 381/305/34 384/307/34 480/308/34
f 381/305/34 480/308/34 477/306/34
f 384/307/34 293/245/34 389/248/34
f 384/307/34 389/248/34 480/308/34
f 487/309/34 481/310/34 485/311/34
f 485/311/34 576/312/34 573/313/34
f 573/313/34 570/314/34 567/315/34
f 567/315/36 564/316/36 561/317/36
f 561/317/34 558/318/34 555/319/34
f 555/319/34 552/320/34 549/321/34
f 549/321/36 546/322/36 543/323/36
f 543/323/34 540/324/34 537/325/34
f 537/325/34 534/326/34 530/327/34
f 530/327/34 526/328/34 523/329/34
f 523/329/34 520/330/34 517/331/34
f 517/331/37 514/332/37 511/333/37
f 511/333/34 508/334/34 505/335/34
f 505/335/34 502/176/34 499/175/34
f 499/175/37 496/336/37 493/337/37
f 493/337/34 490/338/34 487/309/34
f 487/309/34 485/311/34 573/313/34
f 573/313/34 567/315/34 561/317/34
f 561/317/34 555/319/34 549/321/34
f 549/321/34 543/323/34 537/325/34
f 537/325/34 530/327/34 523/329/34
f 523/329/34 517/331/34 511/333/34
f 511/333/34 505/335/34 499/175/34
f 499/175/34 493/337/34 487/309/34
f 487/309/34 573/313/34 561/317/34
f 561/317/34 549/321/34 537/325/34
f 537/325/34 523/329/34 511/333/34
f 511/333/34 499/175/34 487/309/34
f 487/309/34 561/317/34 537/325/34
f 537/325/34 511/333/34 487/309/34
f 616/339/38 611/340/38 541/323/38
f 616/339/38 541/323/38 545/322/38
f 627/341/39 592/173/39 504/176/39
f 627/341/39 504/176/39 506/335/39
f 640/342/40 615/339/40 544/322/40
f 640/342/40 544/322/40 548/321/40
f 652/343/41 628/341/41 507/335/41
f 652/343/41 507/335/41 510/334/41
f 664/344/42 639/342/42 547/321/42
f 664/344/42 547/321/42 551/320/42
f 676/345/43 651/343/43 509/334/43
f 676/345/43 509/334/43 513/333/43
f 688/346/44 663/344/44 550/320/44
f 688/346/44 550/320/44 554/319/44
f 700/347/45 675/345/45 512/333/45
f 700/347/45 512/333/45 516/332/45
f 711/348/46 687/346/46 553/319/46
f 711/348/46 553/319/46 556/318/46
f 723/349/47 699/347/47 515/332/47
f 723/349/48 515/332/48 519/331/48
f 735/350/49 712/348/49 557/318/49
f 735/350/49 557/318/49 559/317/49
f 746/351/50 722/349/50 518/331/50
f 746/351/51 518/331/51 522/330/51
f 759/352/52 736/350/52 560/317/52
f 759/352/52 560/317/52 562/316/52
f 770/353/53 745/351/53 521/330/53
f 770/353/54 521/330/54 525/329/54
f 793/354/55 791/355/55 486/311/55
f 793/354/55 486/311/55 482/310/55
f 807/356/56 760/352/56 563/316/56
f 807/356/57 563/316/57 565/315/57
f 819/357/58 769/353/58 524/329/58
f 819/357/58 524/329/58 528/328/58
f 829/358/59 795/354/59 483/310/59
f 829/358/59 483/310/59 488/309/59
f 843/359/60 808/356/60 566/315/60
f 843/359/61 566/315/61 568/314/61
f 855/360/62 817/357/62 527/328/62
f 855/360/62 527/328/62 531/327/62
f 865/361/63 830/358/63 489/309/63
f 865/361/64 489/309/64 491/338/64
f 879/362/65 844/359/65 569/314/65
f 879/362/66 569/314/66 571/313/66
f 892/363/67 854/360/67 529/327/67
f 892/363/67 529/327/67 533/326/67
f 902/364/68 866/361/68 492/338/68
f 902/364/68 492/338/68 494/337/68
f 914/365/69 880/362/69 572/313/69
f 914/365/69 572/313/69 574/312/69
f 928/366/70 890/363/70 532/326/70
f 928/366/70 532/326/70 536/325/70
f 939/367/71 903/364/71 495/337/71
f 939/367/71 495/337/71 497/336/71
f 790/355/72 916/365/72 575/312/72
f 790/355/72 575/312/72 484/311/72
f 952/368/73 927/366/73 535/325/73
f 952/368/74 535/325/74 539/324/74
f 587/174/75 940/367/75 498/336/75
f 587/174/75 498/336/75 500/175/75
f 612/340/76 951/368/76 538/324/76
f 612/340/76 538/324/76 542/323/76
f 1038/369/20 1032/370/20 957/371/20
f 1038/369/20 957/371/20 602/372/20
f 604/372/77 958/371/77 953/373/77
f 604/372/77 953/373/77 606/374/77
f 608/375/78 954/376/78 949/368/78
f 608/375/78 949/368/78 610/340/78
f 1034/377/6 1031/378/6 948/379/6
f 1034/377/6 948/379/6 578/380/6
s 1
f 577/380/79 947/379/80 944/381/81
f 577/380/79 944/381/81 583/382/79
f 581/383/82 942/384/82 938/367/82
f 581/383/82 938/367/82 585/174/82
s 0
f 1033/370/19 1028/385/19 933/386/19
f 1033/370/19 933/386/19 959/371/19
f 960/371/83 934/386/83 929/387/83
f 960/371/83 929/387/83 955/373/83
s 1
f 956/376/84 930/388/84 925/366/84
s 0
f 956/376/84 925/366/84 950/368/84
f 1039/389/32 1027/390/32 923/391/32
f 1039/389/32 923/391/32 781/392/32
f 782/392/85 924/391/85 919/393/85
f 782/392/85 919/393/85 785/394/85
f 786/395/86 920/396/86 915/365/86
f 786/395/86 915/365/86 789/355/86
f 1030/378/5 1025/397/5 912/398/5
f 1030/378/5 912/398/5 946/379/5
s 1
f 945/399/87 909/400/87 907/401/87
f 945/399/87 907/401/87 943/402/87
f 941/384/88 905/403/88 901/364/88
f 941/384/88 901/364/88 937/367/89
s 0
f 1029/385/18 1022/404/18 897/405/18
f 1029/385/18 897/405/18 935/386/18
f 936/386/90 898/405/90 893/406/90
f 936/386/90 893/406/90 931/387/90
f 932/388/91 894/407/91 889/363/91
f 932/388/91 889/363/91 926/366/91
f 1026/390/31 1021/408/31 887/409/31
f 1026/390/31 887/409/31 921/391/31
f 922/391/92 888/409/92 883/410/92
f 922/391/92 883/410/92 917/393/92
f 918/396/93 884/411/93 878/362/93
f 918/396/93 878/362/93 913/365/93
f 1024/412/4 1019/413/4 876/414/4
f 1024/412/4 876/414/4 911/415/4
f 910/416/94 875/417/94 872/418/94
f 910/416/94 872/418/94 908/403/94
f 906/403/95 871/418/95 868/361/95
f 906/403/95 868/361/95 904/364/95
f 1023/404/17 1016/419/17 861/420/17
f 1023/404/17 861/420/17 899/405/17
f 900/405/96 862/420/96 857/421/96
f 900/405/96 857/421/96 895/406/96
f 896/407/97 858/422/97 853/360/97
f 896/407/97 853/360/97 891/363/97
f 1020/408/30 1015/423/30 851/424/30
f 1020/408/30 851/424/30 885/409/30
f 886/409/98 852/424/98 847/425/98
f 886/409/98 847/425/98 881/410/98
s 1
f 882/411/99 848/426/99 842/359/99
s 0
f 882/411/99 842/359/99 877/362/99
f 1018/413/3 1013/427/3 840/428/3
f 1018/413/3 840/428/3 874/414/3
f 873/417/100 839/429/100 836/430/100
f 873/417/100 836/430/100 870/418/100
s 1
f 869/418/101 835/430/101 832/358/101
s 0
f 869/418/101 832/358/101 867/361/101
f 1017/419/16 1010/431/16 826/432/16
f 1017/419/16 826/432/16 864/420/16
f 863/420/102 825/432/102 822/433/102
f 863/420/102 822/433/102 860/421/102
f 859/422/103 821/434/103 818/357/103
f 859/422/103 818/357/103 856/360/103
f 1014/423/29 1009/435/29 814/436/29
f 1014/423/29 814/436/29 849/424/29
f 850/424/104 816/436/104 810/437/104
f 850/424/104 810/437/104 845/425/104
f 846/426/105 812/438/105 806/356/105
f 846/426/105 806/356/105 841/359/105
f 1012/427/2 1007/439/2 804/440/2
f 1012/427/2 804/440/2 838/428/2
f 837/428/106 803/440/106 800/441/106
f 837/428/106 800/441/106 834/442/106
f 833/430/107 799/443/107 796/354/107
f 833/430/107 796/354/107 831/358/107
f 1011/431/15 1004/444/15 778/445/15
f 1011/431/15 778/445/15 828/432/15
f 827/432/108 777/445/108 774/446/108
f 827/432/108 774/446/108 824/433/108
f 823/434/109 773/447/109 771/353/109
f 823/434/109 771/353/109 820/357/109
f 1008/448/28 1003/449/28 766/450/28
f 1008/448/28 766/450/28 813/451/28
f 815/451/110 768/450/110 762/452/110
f 815/451/110 762/452/110 809/453/110
f 811/438/111 764/454/111 758/352/111
f 811/438/111 758/352/111 805/356/111
f 1006/439/1 1040/389/1 784/392/1
f 1006/439/1 784/392/1 802/440/1
f 801/440/112 783/392/112 788/394/112
s 1
f 801/440/112 788/394/112 798/441/112
s 0
f 797/443/113 787/395/113 792/355/113
f 797/443/113 792/355/113 794/354/113
f 1005/444/14 1000/455/14 754/456/14
f 1005/444/14 754/456/14 780/445/14
f 779/457/114 753/458/114 750/459/114
f 779/457/114 750/459/114 776/447/114
s 1
f 775/447/115 749/459/115 747/351/115
s 0
f 775/447/115 747/351/115 772/353/115
f 1002/449/27 999/460/27 742/461/27
f 1002/449/27 742/461/27 765/450/27
f 767/450/116 744/461/116 738/462/116
f 767/450/116 738/462/116 761/452/116
f 763/454/117 740/463/117 734/350/117
f 763/454/117 734/350/117 757/352/117
f 1001/455/13 995/464/13 731/465/13
f 1001/455/13 731/465/13 756/456/13
f 755/458/118 730/466/118 728/467/118
f 755/458/118 728/467/118 752/459/118
f 751/459/119 726/467/119 724/349/119
f 751/459/119 724/349/119 748/351/119
s 1
f 997/460/120 992/468/121 717/469/121
f 997/460/120 717/469/121 741/461/121
f 743/461/122 720/469/122 714/470/122
f 743/461/122 714/470/122 737/462/122
s 0
f 739/463/123 716/471/123 710/348/123
f 739/463/123 710/348/123 733/350/123
f 996/472/12 989/473/12 706/474/12
f 996/472/12 706/474/12 732/475/12
s 1
f 729/476/124 705/477/124 703/478/124
f 729/476/124 703/478/124 727/479/124
f 725/467/125 701/480/125 697/347/125
f 725/467/125 697/347/125 721/349/125
s 0
f 993/468/126 987/481/126 693/482/126
f 993/468/126 693/482/126 718/469/126
f 719/469/127 695/482/127 689/483/127
f 719/469/127 689/483/127 713/470/127
f 715/471/128 691/484/128 685/346/128
f 715/471/128 685/346/128 709/348/128
f 990/473/11 982/485/11 682/486/11
f 990/473/11 682/486/11 708/474/11
s 1
f 707/474/129 681/486/129 679/487/129
f 707/474/129 679/487/129 704/488/130
f 702/480/131 677/489/131 673/345/131
f 702/480/131 673/345/131 698/347/131
s 0
f 988/481/132 980/490/132 670/491/132
f 988/481/132 670/491/132 694/482/132
f 696/482/133 671/491/133 665/492/133
f 696/482/133 665/492/133 690/483/133
f 692/484/134 667/493/134 661/344/134
f 692/484/134 661/344/134 686/346/134
f 984/485/135 977/494/135 660/495/135
f 984/485/135 660/495/135 684/486/135
s 1
f 683/486/136 658/495/136 656/496/137
f 683/486/136 656/496/137 680/487/136
f 678/489/138 653/497/139 649/343/139
f 678/489/138 649/343/139 674/345/139
f 979/490/140 971/498/140 645/499/140
f 979/490/140 645/499/140 669/491/140
f 672/491/141 647/499/142 641/500/141
f 672/491/141 641/500/141 666/492/142
s 0
f 668/493/143 643/501/143 637/342/143
f 668/493/143 637/342/143 662/344/143
f 976/494/9 970/502/9 636/503/9
f 976/494/9 636/503/9 659/495/9
f 657/495/144 634/503/144 632/504/144
f 657/495/144 632/504/144 655/496/144
f 654/497/145 630/505/145 626/341/145
f 654/497/145 626/341/145 650/343/145
f 973/498/22 965/506/22 621/507/22
f 973/498/22 621/507/22 646/499/22
f 648/499/146 623/507/146 617/508/146
f 648/499/146 617/508/146 642/500/146
f 644/501/147 619/509/147 613/339/147
f 644/501/147 613/339/147 638/342/147
f 969/502/8 963/510/8 599/511/8
f 969/502/8 599/511/8 635/503/8
f 633/503/148 597/511/148 595/512/148
f 633/503/148 595/512/148 631/504/148
f 629/505/149 594/513/149 590/173/149
f 629/505/149 590/173/149 625/341/149
f 966/514/21 1037/369/21 601/372/21
f 966/514/21 601/372/21 622/515/21
f 624/516/150 603/517/150 605/375/150
f 624/516/150 605/375/150 618/509/150
f 620/509/151 607/375/151 609/340/151
f 620/509/151 609/340/151 614/339/151
f 964/510/152 1036/377/152 580/380/152
f 964/510/152 580/380/152 600/511/152
s 1
f 598/511/153 579/380/153 584/382/153
f 598/511/153 584/382/153 596/512/154
f 593/513/155 582/383/155 586/174/156
f 593/513/155 586/174/156 589/173/155
f 311/518/157 309/519/157 1035/377/157
f 311/518/157 1035/377/157 961/510/157
s 0
f 353/520/21 349/521/21 1037/369/21
f 353/520/21 1037/369/21 966/514/21
s 1
f 315/522/158 312/518/158 962/510/159
f 315/522/158 962/510/159 968/502/158
s 0
f 356/523/22 352/524/22 965/506/22
f 356/523/22 965/506/22 973/498/22
s 1
f 318/525/160 314/522/160 967/502/160
f 318/525/160 967/502/160 975/494/160
s 0
f 359/526/23 355/523/23 972/498/23
f 359/526/23 972/498/23 981/490/23
s 1
f 321/527/161 317/525/161 974/494/161
f 321/527/161 974/494/161 983/485/161
s 0
f 362/528/24 358/526/24 978/490/24
f 362/528/24 978/490/24 986/481/24
f 324/529/11 320/527/11 982/485/11
f 324/529/11 982/485/11 990/473/11
f 364/530/25 361/528/25 985/481/25
f 364/530/25 985/481/25 991/468/25
f 327/531/12 323/529/12 989/473/12
f 327/531/12 989/473/12 996/472/12
f 367/532/26 365/530/26 994/468/26
f 367/532/26 994/468/26 998/460/26
f 330/533/13 326/534/13 995/464/13
f 330/533/13 995/464/13 1001/455/13
f 370/535/27 368/532/27 999/460/27
f 370/535/27 999/460/27 1002/449/27
f 333/536/14 329/533/14 1000/455/14
f 333/536/14 1000/455/14 1005/444/14
f 290/537/1 294/538/1 1040/389/1
f 290/537/1 1040/389/1 1006/439/1
f 373/539/28 371/535/28 1003/449/28
f 373/539/28 1003/449/28 1008/448/28
f 336/540/15 332/536/15 1004/444/15
f 336/540/15 1004/444/15 1011/431/15
f 296/541/2 291/537/2 1007/439/2
f 296/541/2 1007/439/2 1012/427/2
f 376/542/29 374/543/29 1009/435/29
f 376/542/29 1009/435/29 1014/423/29
f 339/544/16 335/540/16 1010/431/16
f 339/544/16 1010/431/16 1017/419/16
f 299/545/3 297/541/3 1013/427/3
f 299/545/3 1013/427/3 1018/413/3
f 379/546/30 377/542/30 1015/423/30
f 379/546/30 1015/423/30 1020/408/30
f 341/547/17 337/544/17 1016/419/17
f 341/547/17 1016/419/17 1023/404/17
f 302/548/4 300/545/4 1019/413/4
f 302/548/4 1019/413/4 1024/412/4
f 382/549/31 380/546/31 1021/408/31
f 382/549/31 1021/408/31 1026/390/31
f 344/550/18 340/547/18 1022/404/18
f 344/550/18 1022/404/18 1029/385/18
f 305/551/5 303/552/5 1025/397/5
f 305/551/5 1025/397/5 1030/378/5
f 292/538/32 383/549/32 1027/390/32
f 292/538/32 1027/390/32 1039/389/32
f 347/553/19 343/550/19 1028/385/19
f 347/553/19 1028/385/19 1033/370/19
f 308/519/6 306/551/6 1031/378/6
f 308/519/6 1031/378/6 1034/377/6
f 350/521/20 346/553/20 1032/370/20
f 350/521/20 1032/370/20 1038/369/20
